<svg version="1.1" 
	xmlns="http://www.w3.org/2000/svg" x="0px" y="0px" viewBox="0 0 202.3 14.6" xml:space="preserve">
	<style type="text/css">.st10{fill:#fff}</style>
	<g id="Layer_1">
		<path class="st10" d="M4.5 10.3l-.6-1.7H1.6L1 10.3H0l2.2-6h1.1l2.2 6h-1zm-.8-2.5l-.6-1.7c0-.1-.1-.2-.2-.5-.1-.2-.1-.4-.1-.5-.1.3-.2.7-.4 1.1l-.5 1.6h1.8zM15.5 6.1c0 .6-.2 1.1-.6 1.4-.4.3-1 .5-1.8.5h-.6v2.2h-1v-6h1.7c.7 0 1.3.2 1.7.5s.6.8.6 1.4zm-3 1.1h.5c.5 0 .9-.1 1.1-.3.2-.2.4-.4.4-.8 0-.3-.1-.6-.3-.8-.2-.2-.5-.3-1-.3h-.7v2.2zM18.5 7.9v2.4h-1v-6h1.7c.8 0 1.3.1 1.7.4.4.3.6.7.6 1.3 0 .7-.4 1.3-1.2 1.6l1.7 2.7h-1.1l-1.4-2.4h-1zm0-.8h.7c.5 0 .8-.1 1-.3.2-.2.3-.4.3-.8 0-.3-.1-.6-.3-.7-.2-.1-.6-.2-1-.2h-.6v2zM29.2 7.3c0 1-.2 1.7-.7 2.3-.5.5-1.2.8-2.1.8-.9 0-1.6-.3-2.1-.8s-.7-1.3-.7-2.3.2-1.8.7-2.3c.5-.5 1.2-.8 2.1-.8.9 0 1.6.3 2.1.8.4.5.7 1.3.7 2.3zm-4.6 0c0 .7.1 1.3.4 1.7.3.4.7.6 1.3.6.6 0 1-.2 1.3-.6.4-.4.5-1 .5-1.7S28 6 27.7 5.6c-.3-.4-.7-.6-1.3-.6-.6 0-1 .2-1.3.6-.4.4-.5.9-.5 1.7zM36.3 7.2c0 1-.3 1.7-.8 2.3-.5.5-1.3.8-2.4.8h-1.7v-6h1.9c1 0 1.7.3 2.2.8.5.5.8 1.2.8 2.1zm-1 .1c0-1.4-.7-2.2-2-2.2h-.8v4.4h.7c1.3 0 2.1-.8 2.1-2.2zM43.2 4.3v3.9c0 .4-.1.8-.3 1.2-.2.3-.5.6-.8.8-.4.2-.8.3-1.3.3-.7 0-1.3-.2-1.7-.6-.4-.4-.6-.9-.6-1.6v-4h1v3.8c0 .5.1.9.3 1.1s.6.4 1.1.4c.9 0 1.4-.5 1.4-1.5V4.3h.9zM48.3 5c-.6 0-1 .2-1.3.6-.3.4-.5 1-.5 1.7s.2 1.3.5 1.7.8.6 1.3.6c.3 0 .5 0 .7-.1s.5-.1.7-.2v.8c-.5.2-1 .3-1.6.3-.9 0-1.6-.3-2-.8-.5-.5-.7-1.3-.7-2.3 0-.6.1-1.2.3-1.6s.6-.8 1-1.1c.4-.2.9-.4 1.5-.4s1.2.1 1.7.4l-.4.8-.6-.3c-.1 0-.4-.1-.6-.1zM54.4 10.3h-1V5.1h-1.8v-.8h4.5v.8h-1.8v5.2zM67.6 7.3c0 1-.2 1.7-.7 2.3-.5.5-1.2.8-2.1.8-.9 0-1.6-.3-2.1-.8S62 8.3 62 7.3s.2-1.8.7-2.3c.5-.5 1.2-.8 2.1-.8.9 0 1.6.3 2.1.8.4.5.7 1.3.7 2.3zm-4.6 0c0 .7.1 1.3.4 1.7.3.4.7.6 1.3.6.6 0 1-.2 1.3-.6.3-.4.4-.9.4-1.7 0-.7-.1-1.3-.4-1.7-.2-.4-.7-.6-1.2-.6-.6 0-1 .2-1.3.6-.4.4-.5.9-.5 1.7zM70.8 10.3h-1v-6h3.4v.8h-2.4V7H73v.8h-2.3v2.5z"/>
		<g>
			<path class="st10" d="M98.3 3.4v9.5h-2.1V3.4h-2.1V1.5h6.3v1.9h-2.1zM105.6 12.9V8.2h-2.4v4.7h-2.1V1.5h2.1v4.8h2.4V1.5h2.1v11.4h-2.1zM109.1 12.9V1.5h5.4v1.8h-3.3v2.8h2.3v1.7h-2.3V11h3.3v1.9h-5.4zM121.9 3.4v9.5h-2.1V3.4h-2.1V1.5h6.3v1.9h-2.1zM124.9 12.9V1.5h5.4v1.8H127v2.8h2.3v1.7H127V11h3.3v1.9h-5.4zM135.9 12.9L134.6 9l-1.5 3.9H131l2.3-5.8-2.2-5.7h2.2l1.3 3.9 1.4-3.9h2.1L135.8 7l2.3 5.9h-2.2zM143.3 12.9l-.4-2.2h-2l-.4 2.2h-2l2.3-11.4h2.4l2.3 11.4h-2.2zM142 4.6l-.8 4.4h1.5l-.7-4.4zM148.9 13.2c-2 0-3.2-1.2-3.2-2.9v-.9h2v.7c0 .8.4 1.3 1.2 1.3.8 0 1.1-.4 1.1-1.1 0-.9-.6-1.5-1.7-2.4-1.2-.8-2.4-2-2.4-3.6s1.1-3.1 3.1-3.1c1.8 0 3 1.2 3 2.9v.7h-1.9v-.6c0-.7-.4-1.2-1.1-1.2-.6 0-1 .4-1 1 0 1 .6 1.5 1.8 2.4 1.4 1 2.3 2 2.3 3.6 0 1.8-1.3 3.2-3.2 3.2zM159.2 3.4v9.5H157V3.4h-2.1V1.5h6.3v1.9h-2zM167.4 13c-.8 0-1.2-.7-1.2-1.7V9.1c0-.5-.3-1-.9-1h-1.1v4.7h-2.1V1.5h3.5c1.6 0 2.6.9 2.6 2.5v1.6c0 .9-.4 1.5-1.3 1.8.9.2 1.3 1 1.3 1.7v2.1c0 .5.2.9.4 1.2v.6h-1.2zm-1.2-8.9c0-.5-.2-.8-.8-.8h-1.2v3.4h1.1c.5 0 .8-.3.8-.9V4.1zM169.9 12.9V1.5h2.1v11.4h-2.1zM177.4 12.9h-3.6V1.5h3.6c1.6 0 2.5.8 2.5 2.4v1.2c0 1-.4 1.7-1.4 1.9 1 .3 1.4 1 1.4 1.9v1.5c0 1.7-1 2.5-2.5 2.5zm.4-8.8c0-.5-.2-.8-.8-.8h-1.1v3.1h1.1c.5 0 .8-.3.8-.9V4.1zm.1 4.7c0-.6-.3-.9-.8-.9H176v3.2h1.2c.5 0 .7-.3.7-.8V8.8zM184.4 13.2c-1.9 0-3.2-1.2-3.2-2.9V1.5h2.2v8.8c0 .7.4 1 1.1 1 .7 0 1.1-.4 1.1-1V1.5h2.1v8.8c-.2 1.7-1.5 2.9-3.3 2.9zM193.8 12.9L191.6 8l-.8-1.8v6.7h-2V1.5h1.8l2.1 4.9.8 1.8V1.5h1.9v11.4h-1.6zM196.9 12.9V1.5h5.4v1.8H199v2.8h2.3v1.7H199V11h3.3v1.9h-5.4z"/>
			<path d="M80.7 1.4v13.3l2.7-1.7h8.9V1.4H80.7zm8.3 9.2L86.5 9 84 10.7l.8-2.9-2.4-1.9 3-.1L86.5 3l1.1 2.8 3 .1-2.4 1.9.8 2.8z" fill="#fdc010"/>
		</g>
	</g>
	<g id="Layer_2"/>
</svg>