<svg xmlns="http://www.w3.org/2000/svg" width="24" height="24" viewBox="0 0 24 24"><path d="M8 18.223c-.865.176-1.453.121-1.87-.011a2.282 2.282 0 01-.614-.302c-.411-.284-.727-.675-1.119-1.172-.356-.451-.85-1.107-1.551-1.476a2.694 2.694 0 00-.604-.232 1 1 0 10-.485 1.941l.155.06c.252.133.487.404.914.946.366.464.856 1.098 1.553 1.579.332.229.711.426 1.149.564.712.225 1.525.28 2.473.135L8 22a1 1 0 002 0v-3.87l-.002-.069a2.359 2.359 0 01.661-1.816 1 1 0 00-.595-1.688c-.34-.042-.677-.094-1.006-.159-.79-.156-1.518-.385-2.147-.733C5.593 12.936 4.5 11.571 4.5 8.544A4.416 4.416 0 015.724 5.46c.257-.274.35-.672.213-1.04a4.054 4.054 0 01-.141-2.392c.491.107 1.355.416 2.647 1.283a.998.998 0 00.826.132 12.229 12.229 0 016.47.002.994.994 0 00.818-.135c1.293-.866 2.156-1.175 2.647-1.282a4.041 4.041 0 01-.141 2.392c-.129.352-.058.755.213 1.04A4.419 4.419 0 0120.5 8.52c0 3.075-1.114 4.445-2.445 5.163-.623.336-1.343.555-2.123.7-.322.06-.651.106-.983.143a1 1 0 00-.608 1.689 2.358 2.358 0 01.663 1.837l-.003.078V22a1 1 0 002 0v-3.792a4.377 4.377 0 00-.292-1.942c.777-.171 1.563-.427 2.297-.823 2.083-1.124 3.496-3.242 3.496-6.923a6.408 6.408 0 00-1.379-3.981A6.044 6.044 0 0020.83.606a1 1 0 00-.635-.564c-.357-.106-1.732-.309-4.373 1.362a14.24 14.24 0 00-6.646-.002C6.537-.267 5.163-.064 4.806.042a.998.998 0 00-.635.565 6.044 6.044 0 00-.292 3.932A6.414 6.414 0 002.5 8.556c0 3.622 1.389 5.723 3.441 6.859.752.416 1.56.685 2.357.867a4.371 4.371 0 00-.299 1.88z"/></svg>