<svg xmlns="http://www.w3.org/2000/svg" viewBox="0 0 28 28"><path d="M22 12c0 4.422-4.922 8-11 8-.953 0-1.875-.094-2.75-.25a13.114 13.114 0 01-4.344 2 11.58 11.58 0 01-1.344.25h-.047c-.234 0-.453-.187-.5-.453-.063-.297.141-.484.313-.688.609-.688 1.297-1.297 1.828-2.594C1.625 16.796 0 14.531 0 11.999c0-4.422 4.922-8 11-8s11 3.578 11 8zm6 4c0 2.547-1.625 4.797-4.156 6.266.531 1.297 1.219 1.906 1.828 2.594.172.203.375.391.313.688-.063.281-.297.484-.547.453a11.58 11.58 0 01-1.344-.25 13.114 13.114 0 01-4.344-2c-.875.156-1.797.25-2.75.25-2.828 0-5.422-.781-7.375-2.063a20.4 20.4 0 001.375.063c3.359 0 6.531-.969 8.953-2.719C22.562 17.376 24 14.798 24 12.001c0-.812-.125-1.609-.359-2.375C26.282 11.079 28 13.392 28 16.001z"/></svg>