<svg xmlns="http://www.w3.org/2000/svg" fill-rule="evenodd" stroke-linejoin="round" stroke-miterlimit="2" clip-rule="evenodd" viewBox="0 0 24 24"><path fill-rule="nonzero" d="M12.002 2.005c5.518 0 9.998 4.48 9.998 9.997C22 17.52 17.52 22 12.002 22c-5.517 0-9.997-4.48-9.997-9.998 0-5.517 4.48-9.997 9.997-9.997zm0 1.5c-4.69 0-8.497 3.807-8.497 8.497S7.312 20.5 12.002 20.5s8.498-3.808 8.498-8.498-3.808-8.497-8.498-8.497zm0 6.5a.75.75 0 0 0-.75.75v5.5a.75.75 0 0 0 1.5 0v-5.5a.75.75 0 0 0-.75-.75zm-.002-3a1 1 0 1 1 0 2 1 1 0 0 1 0-2z"/></svg>