<svg xmlns="http://www.w3.org/2000/svg" viewBox="0 0 28 28"><path d="M17.109 18.234c.141.141.141.359 0 .484-.891.891-2.609.969-3.109.969s-2.219-.078-3.109-.969c-.141-.125-.141-.344 0-.484a.34.34 0 0 1 .469 0c.562.578 1.781.766 2.641.766s2.063-.187 2.641-.766a.34.34 0 0 1 .469 0zm-4.796-2.828c0 .766-.625 1.391-1.391 1.391a1.397 1.397 0 0 1-1.406-1.391A1.4 1.4 0 0 1 10.922 14c.766 0 1.391.625 1.391 1.406zm6.171 0c0 .766-.625 1.391-1.406 1.391a1.394 1.394 0 0 1-1.391-1.391c0-.781.625-1.406 1.391-1.406a1.4 1.4 0 0 1 1.406 1.406zm3.922-1.875a1.867 1.867 0 0 0-1.875-1.859c-.531 0-1 .219-1.344.562-1.266-.875-2.969-1.437-4.859-1.5l.984-4.422 3.125.703c0 .766.625 1.391 1.391 1.391.781 0 1.406-.641 1.406-1.406s-.625-1.406-1.406-1.406a1.42 1.42 0 0 0-1.25.781l-3.453-.766c-.172-.047-.344.078-.391.25l-1.078 4.875c-1.875.078-3.563.641-4.828 1.516a1.877 1.877 0 0 0-1.359-.578 1.867 1.867 0 0 0-1.875 1.859c0 .75.438 1.375 1.062 1.687a4.024 4.024 0 0 0-.094.875c0 2.969 3.344 5.375 7.453 5.375 4.125 0 7.469-2.406 7.469-5.375 0-.297-.031-.609-.109-.891a1.878 1.878 0 0 0 1.031-1.672zM28 14c0 7.734-6.266 14-14 14S0 21.734 0 14 6.266 0 14 0s14 6.266 14 14z"/></svg>