<svg viewBox="0 0 22 22" xmlns="http://www.w3.org/2000/svg">
  <path d="M15 9.3333C15 6.332 12.557 3.889 9.5556 3.889c-3.0015 0-5.4445 2.443-5.4445 5.4444 0 3.0015 2.443 5.4445 5.4445 5.4445 3.0014 0 5.4444-2.443 5.4444-5.4445zm6.2222 10.1111c0 .851-.7046 1.5556-1.5555 1.5556-.413 0-.8144-.1703-1.0936-.462l-4.1681-4.1564c-1.4218.9846-3.1236 1.5065-4.8487 1.5065-4.7273 0-8.5555-3.8282-8.5555-8.5555C1.0008 4.6052 4.829.777 9.5563.777c4.7274 0 8.5556 3.8282 8.5556 8.5556 0 1.7258-.5227 3.4268-1.5066 4.8486l4.1681 4.1681c.2793.2793.4496.6806.4496 1.0936l-.0008.0015z"/>
</svg>