<!-- Generated by IcoMoon.io -->
<svg version="1.1" xmlns="http://www.w3.org/2000/svg" width="26" height="28" viewBox="0 0 26 28">
<title>volume-up</title>
<path d="M12 5.5v17c0 0.547-0.453 1-1 1-0.266 0-0.516-0.109-0.703-0.297l-5.203-5.203h-4.094c-0.547 0-1-0.453-1-1v-6c0-0.547 0.453-1 1-1h4.094l5.203-5.203c0.187-0.187 0.438-0.297 0.703-0.297 0.547 0 1 0.453 1 1zM18 14c0 1.563-0.953 3.078-2.422 3.672-0.125 0.063-0.266 0.078-0.391 0.078-0.547 0-1-0.438-1-1 0-1.188 1.813-0.859 1.813-2.75s-1.813-1.563-1.813-2.75c0-0.562 0.453-1 1-1 0.125 0 0.266 0.016 0.391 0.078 1.469 0.578 2.422 2.109 2.422 3.672zM22 14c0 3.172-1.906 6.125-4.844 7.359-0.125 0.047-0.266 0.078-0.391 0.078-0.562 0-1.016-0.453-1.016-1 0-0.438 0.25-0.734 0.609-0.922 0.422-0.219 0.812-0.406 1.188-0.688 1.547-1.125 2.453-2.922 2.453-4.828s-0.906-3.703-2.453-4.828c-0.375-0.281-0.766-0.469-1.188-0.688-0.359-0.187-0.609-0.484-0.609-0.922 0-0.547 0.453-1 1-1 0.141 0 0.281 0.031 0.406 0.078 2.938 1.234 4.844 4.188 4.844 7.359zM26 14c0 4.797-2.859 9.141-7.266 11.031-0.125 0.047-0.266 0.078-0.406 0.078-0.547 0-1-0.453-1-1 0-0.453 0.234-0.703 0.609-0.922 0.219-0.125 0.469-0.203 0.703-0.328 0.438-0.234 0.875-0.5 1.281-0.797 2.562-1.891 4.078-4.875 4.078-8.062s-1.516-6.172-4.078-8.062c-0.406-0.297-0.844-0.562-1.281-0.797-0.234-0.125-0.484-0.203-0.703-0.328-0.375-0.219-0.609-0.469-0.609-0.922 0-0.547 0.453-1 1-1 0.141 0 0.281 0.031 0.406 0.078 4.406 1.891 7.266 6.234 7.266 11.031z"></path>
</svg>
